<svg width="25" height="19" viewBox="0 0 25 19" fill="none" xmlns="http://www.w3.org/2000/svg">
<path fill-rule="evenodd" clip-rule="evenodd" d="M0.5 2.64275C0.5 1.69598 1.26751 0.928467 2.21429 0.928467H22.7857C23.7325 0.928467 24.5 1.69598 24.5 2.64275V16.357C24.5 17.3038 23.7325 18.0713 22.7857 18.0713H2.21429C1.26751 18.0713 0.5 17.3038 0.5 16.357V2.64275ZM22.7857 2.64275H2.21429V16.357H22.7857V2.64275Z" fill="white"/>
<path fill-rule="evenodd" clip-rule="evenodd" d="M15.9286 13.7856C15.9286 13.3122 16.3123 12.9285 16.7857 12.9285H20.2143C20.6877 12.9285 21.0714 13.3122 21.0714 13.7856C21.0714 14.259 20.6877 14.6428 20.2143 14.6428H16.7857C16.3123 14.6428 15.9286 14.259 15.9286 13.7856Z" fill="white"/>
<path fill-rule="evenodd" clip-rule="evenodd" d="M10.7857 13.7856C10.7857 13.3122 11.1695 12.9285 11.6429 12.9285H13.3571C13.8305 12.9285 14.2143 13.3122 14.2143 13.7856C14.2143 14.259 13.8305 14.6428 13.3571 14.6428H11.6429C11.1695 14.6428 10.7857 14.259 10.7857 13.7856Z" fill="white"/>
<path fill-rule="evenodd" clip-rule="evenodd" d="M0.5 6.16842C0.5 5.69504 0.883756 5.31128 1.35714 5.31128H23.6429C24.1162 5.31128 24.5 5.69504 24.5 6.16842C24.5 6.64181 24.1162 7.02557 23.6429 7.02557H1.35714C0.883756 7.02557 0.5 6.64181 0.5 6.16842Z" fill="white"/>
</svg>
