<svg width="24" height="25" viewBox="0 0 24 25" fill="none" xmlns="http://www.w3.org/2000/svg">
<path d="M15.5166 18.5353L15.5168 18.5355C15.9611 18.9795 16.483 19.3203 17.0516 19.545L13.8712 22.7255C12.8378 23.7588 11.1623 23.7588 10.1291 22.7255L10.1291 22.7255L7.03581 19.6323C7.68267 19.4118 8.27587 19.0447 8.77219 18.5486L8.77237 18.5484L12.1511 15.1696L15.5166 18.5353Z" stroke="white" stroke-width="2"/>
<path d="M17.0513 5.45496C16.4828 5.67964 15.9609 6.02041 15.5166 6.46448L15.5164 6.46468L12.1507 9.83066L8.77222 6.45154L8.77198 6.45131C8.27571 5.95527 7.68255 5.58812 7.03574 5.3677L10.1289 2.27455L10.1289 2.27452C11.1621 1.24122 12.8375 1.24113 13.871 2.27454C13.871 2.27455 13.871 2.27457 13.8711 2.27458L17.0513 5.45496ZM11.9157 10.0657C11.916 10.0654 11.9163 10.0651 11.9167 10.0647L11.9157 10.0657ZM12.3852 10.0652L12.3851 10.0651C12.3851 10.0651 12.3851 10.0651 12.3852 10.0652Z" stroke="white" stroke-width="2"/>
<mask id="path-3-inside-1_96_8627" fill="white">
<path d="M22.9321 9.92191L20.1692 7.15895C20.1084 7.18331 20.0425 7.19852 19.9729 7.19852H18.7167C18.0672 7.19852 17.4315 7.46195 16.9725 7.92121L13.3729 11.5209C13.0361 11.8578 12.5934 12.0263 12.1512 12.0263C11.7086 12.0263 11.2663 11.8578 10.9295 11.5213L7.31628 7.90805C6.85736 7.44869 6.22159 7.18537 5.57212 7.18537H4.02745C3.96156 7.18537 3.9 7.16984 3.84187 7.14795L1.06793 9.92191C-0.355977 11.3458 -0.355977 13.6543 1.06793 15.0782L3.84176 17.852C3.89999 17.8301 3.96156 17.8146 4.02745 17.8146H5.57212C6.22159 17.8146 6.85736 17.5513 7.31628 17.092L10.9292 13.4792C11.5822 12.8267 12.7206 12.8264 13.3729 13.4795L16.9725 17.0789C17.4315 17.5381 18.0672 17.8015 18.7167 17.8015H19.9729C20.0425 17.8015 20.1084 17.8167 20.1692 17.8411L22.9321 15.0782C24.3559 13.6543 24.3559 11.3458 22.9321 9.92189"/>
</mask>
<path d="M20.1692 7.15895L21.5834 5.74474L20.6504 4.81172L19.4255 5.30236L20.1692 7.15895ZM16.9725 7.92121L18.3868 9.3354L18.3873 9.33492L16.9725 7.92121ZM13.3729 11.5209L14.7871 12.9351L14.7872 12.9351L13.3729 11.5209ZM10.9295 11.5213L9.51528 12.9355L9.51573 12.9359L10.9295 11.5213ZM7.31628 7.90805L5.9014 9.3216L5.90207 9.32226L7.31628 7.90805ZM3.84187 7.14795L4.54683 5.27631L3.33974 4.82166L2.42766 5.73374L3.84187 7.14795ZM1.06793 9.92191L2.48215 11.3361L2.48215 11.3361L1.06793 9.92191ZM1.06793 15.0782L2.48215 13.664L2.48215 13.664L1.06793 15.0782ZM3.84176 17.852L2.42755 19.2662L3.33893 20.1776L4.54541 19.7242L3.84176 17.852ZM7.31628 17.092L5.90207 15.6778L5.90157 15.6783L7.31628 17.092ZM10.9292 13.4792L9.51553 12.0644L9.51494 12.0649L10.9292 13.4792ZM13.3729 13.4795L11.958 14.893L11.9588 14.8937L13.3729 13.4795ZM16.9725 17.0789L18.3873 15.6652L18.3867 15.6646L16.9725 17.0789ZM20.1692 17.8411L19.4249 19.6975L20.6501 20.1887L21.5834 19.2553L20.1692 17.8411ZM22.9321 15.0782L24.3464 16.4924L24.3464 16.4923L22.9321 15.0782ZM24.3464 8.50769L21.5834 5.74474L18.755 8.57316L21.5179 11.3361L24.3464 8.50769ZM19.4255 5.30236C19.5605 5.24827 19.7473 5.19852 19.9729 5.19852V9.19852C20.3376 9.19852 20.6562 9.11836 20.9129 9.01554L19.4255 5.30236ZM19.9729 5.19852H18.7167V9.19852H19.9729V5.19852ZM18.7167 5.19852C17.5367 5.19852 16.392 5.67273 15.5578 6.50749L18.3873 9.33492C18.4709 9.25118 18.5977 9.19852 18.7167 9.19852V5.19852ZM15.5583 6.50702L11.9587 10.1067L14.7872 12.9351L18.3868 9.3354L15.5583 6.50702ZM11.9587 10.1067C12.013 10.0524 12.0862 10.0263 12.1512 10.0263V14.0263C13.1007 14.0263 14.0591 13.6632 14.7871 12.9351L11.9587 10.1067ZM12.1512 10.0263C12.2158 10.0263 12.289 10.0524 12.3433 10.1066L9.51573 12.9359C10.2435 13.6632 11.2013 14.0263 12.1512 14.0263V10.0263ZM12.3437 10.107L8.7305 6.49384L5.90207 9.32226L9.51528 12.9355L12.3437 10.107ZM8.73116 6.4945C7.89678 5.65933 6.75188 5.18537 5.57212 5.18537V9.18537C5.6913 9.18537 5.81794 9.23805 5.9014 9.3216L8.73116 6.4945ZM5.57212 5.18537H4.02745V9.18537H5.57212V5.18537ZM4.02745 5.18537C4.27909 5.18537 4.46476 5.2454 4.54683 5.27631L3.13692 9.01959C3.33523 9.09429 3.64403 9.18537 4.02745 9.18537V5.18537ZM2.42766 5.73374L-0.346287 8.5077L2.48215 11.3361L5.25609 8.56216L2.42766 5.73374ZM-0.346286 8.5077C-2.55124 10.7127 -2.55124 14.2874 -0.346286 16.4924L2.48215 13.664C1.83928 13.0211 1.83928 11.979 2.48215 11.3361L-0.346286 8.5077ZM-0.346287 16.4924L2.42755 19.2662L5.25598 16.4378L2.48215 13.664L-0.346287 16.4924ZM4.54541 19.7242C4.46457 19.7545 4.27914 19.8146 4.02745 19.8146V15.8146C3.64398 15.8146 3.33541 15.9057 3.13811 15.9799L4.54541 19.7242ZM4.02745 19.8146H5.57212V15.8146H4.02745V19.8146ZM5.57212 19.8146C6.75185 19.8146 7.89667 19.3407 8.731 18.5057L5.90157 15.6783C5.81804 15.7619 5.69132 15.8146 5.57212 15.8146V19.8146ZM8.7305 18.5062L12.3434 14.8934L9.51494 12.0649L5.90207 15.6778L8.7305 18.5062ZM12.3428 14.8939C12.2545 14.9822 12.1747 14.9897 12.1512 14.9897C12.1277 14.9897 12.047 14.9821 11.958 14.893L14.7878 12.0659C13.3536 10.6303 10.9488 10.6322 9.51553 12.0644L12.3428 14.8939ZM11.9588 14.8937L15.5584 18.4931L18.3867 15.6646L14.7871 12.0652L11.9588 14.8937ZM15.5578 18.4926C16.392 19.3273 17.5367 19.8015 18.7167 19.8015V15.8015C18.5977 15.8015 18.4709 15.7489 18.3873 15.6652L15.5578 18.4926ZM18.7167 19.8015H19.9729V15.8015H18.7167V19.8015ZM19.9729 19.8015C19.7476 19.8015 19.5607 19.7519 19.4249 19.6975L20.9134 15.9848C20.656 15.8816 20.3373 15.8015 19.9729 15.8015V19.8015ZM21.5834 19.2553L24.3464 16.4924L21.5179 13.664L18.755 16.4269L21.5834 19.2553ZM24.3464 16.4923C26.5512 14.2874 26.5512 10.7127 24.3464 8.50773L21.5179 11.3361C22.1607 11.9789 22.1607 13.0211 21.5179 13.664L24.3464 16.4923Z" fill="white" mask="url(#path-3-inside-1_96_8627)"/>
</svg>
